<svg width="54" height="55" viewBox="0 0 54 55" fill="none" xmlns="http://www.w3.org/2000/svg">
<path d="M24.4529 6.35843H8.21627C6.3024 6.35843 4.46691 7.13064 3.1136 8.50518C1.76028 9.87972 1 11.744 1 13.6879V46.6705C1 48.6144 1.76028 50.4787 3.1136 51.8532C4.46691 53.2278 6.3024 54 8.21627 54H44.2976C46.2115 54 48.047 53.2278 49.4003 51.8532C50.7536 50.4787 51.5139 48.6144 51.5139 46.6705V30.1792" stroke="black" stroke-linecap="round" stroke-linejoin="round"/>
<path d="M44.2977 10.0232L47.7363 13.6879M51.514 2.5728C52.4776 3.5821 53.0114 4.93606 52.9999 6.34192C52.9884 7.74779 52.4326 9.09257 51.4526 10.0855L26.257 35.6763L15.4326 39.3411L19.0408 28.3469L44.2508 2.52516C45.1375 1.6188 46.3233 1.07824 47.5794 1.00785C48.8355 0.937465 50.0727 1.34224 51.0521 2.14402L51.514 2.5728Z" stroke="black" stroke-linecap="round" stroke-linejoin="round"/>
</svg>
