<svg width="77" height="98" viewBox="0 0 77 98" fill="none" xmlns="http://www.w3.org/2000/svg">
<path d="M0 98V87.1479C0 87.1479 19.25 76.2957 38.5 76.2957C57.75 76.2957 77 87.1479 77 87.1479V98H0ZM35.805 28.0037C31.185 6.84209 7.7 11.7255 7.7 11.7255C7.7 11.7255 8.47 54.0489 30.415 47.5376C28.875 31.802 23.1 27.4611 23.1 27.4611C33.88 27.4611 34.65 45.9098 34.65 45.9098V70.8697H42.35V48.0802C42.35 48.0802 42.35 26.9185 53.9 21.4925C53.9 21.4925 46.2 37.7707 46.2 48.6228C73.15 52.421 73.15 0.330807 73.15 0.330807C73.15 0.330807 38.885 -5.09526 35.805 28.0037Z" fill="black"/>
</svg>
