<svg width="24" height="24" viewBox="0 0 24 24" fill="none" xmlns="http://www.w3.org/2000/svg">
<path d="M13.028 2C14.153 2.003 14.724 2.009 15.217 2.023L15.411 2.03C15.635 2.038 15.856 2.048 16.123 2.06C17.187 2.11 17.913 2.278 18.55 2.525C19.21 2.779 19.766 3.123 20.322 3.678C20.8307 4.17773 21.2242 4.78247 21.475 5.45C21.722 6.087 21.89 6.813 21.94 7.878C21.952 8.144 21.962 8.365 21.97 8.59L21.976 8.784C21.991 9.276 21.997 9.847 21.999 10.972L22 11.718V13.028C22.0025 13.7574 21.9948 14.4868 21.977 15.216L21.971 15.41C21.963 15.635 21.953 15.856 21.941 16.122C21.891 17.187 21.721 17.912 21.475 18.55C21.2242 19.2175 20.8307 19.8223 20.322 20.322C19.8223 20.8307 19.2175 21.2242 18.55 21.475C17.913 21.722 17.187 21.89 16.123 21.94L15.411 21.97L15.217 21.976C14.724 21.99 14.153 21.997 13.028 21.999L12.282 22H10.973C10.2433 22.0026 9.51354 21.9949 8.78402 21.977L8.59002 21.971C8.35263 21.962 8.11529 21.9517 7.87802 21.94C6.81402 21.89 6.08802 21.722 5.45002 21.475C4.78285 21.2241 4.17846 20.8306 3.67902 20.322C3.16996 19.8224 2.77613 19.2176 2.52502 18.55C2.27802 17.913 2.11002 17.187 2.06002 16.122L2.03002 15.41L2.02502 15.216C2.00659 14.4868 1.99825 13.7574 2.00002 13.028V10.972C1.99725 10.2426 2.00459 9.5132 2.02202 8.784L2.02902 8.59C2.03702 8.365 2.04702 8.144 2.05902 7.878C2.10902 6.813 2.27702 6.088 2.52402 5.45C2.77571 4.7822 3.17024 4.17744 3.68002 3.678C4.17917 3.16955 4.78321 2.77607 5.45002 2.525C6.08802 2.278 6.81302 2.11 7.87802 2.06C8.14402 2.048 8.36602 2.038 8.59002 2.03L8.78402 2.024C9.51321 2.00623 10.2426 1.99857 10.972 2.001L13.028 2ZM12 7C10.6739 7 9.40217 7.52678 8.46449 8.46447C7.5268 9.40215 7.00002 10.6739 7.00002 12C7.00002 13.3261 7.5268 14.5979 8.46449 15.5355C9.40217 16.4732 10.6739 17 12 17C13.3261 17 14.5979 16.4732 15.5356 15.5355C16.4732 14.5979 17 13.3261 17 12C17 10.6739 16.4732 9.40215 15.5356 8.46447C14.5979 7.52678 13.3261 7 12 7ZM12 9C12.394 8.99993 12.7841 9.07747 13.1481 9.22817C13.5121 9.37887 13.8429 9.5998 14.1215 9.87833C14.4001 10.1569 14.6211 10.4875 14.772 10.8515C14.9228 11.2154 15.0005 11.6055 15.0005 11.9995C15.0006 12.3935 14.9231 12.7836 14.7723 13.1476C14.6216 13.5116 14.4007 13.8423 14.1222 14.121C13.8437 14.3996 13.513 14.6206 13.149 14.7714C12.7851 14.9223 12.395 14.9999 12.001 15C11.2054 15 10.4423 14.6839 9.8797 14.1213C9.31709 13.5587 9.00102 12.7956 9.00102 12C9.00102 11.2044 9.31709 10.4413 9.8797 9.87868C10.4423 9.31607 11.2054 9 12.001 9M17.251 5.5C16.9195 5.5 16.6016 5.6317 16.3671 5.86612C16.1327 6.10054 16.001 6.41848 16.001 6.75C16.001 7.08152 16.1327 7.39946 16.3671 7.63388C16.6016 7.8683 16.9195 8 17.251 8C17.5825 8 17.9005 7.8683 18.1349 7.63388C18.3693 7.39946 18.501 7.08152 18.501 6.75C18.501 6.41848 18.3693 6.10054 18.1349 5.86612C17.9005 5.6317 17.5825 5.5 17.251 5.5Z" fill="white"/>
</svg>
