<svg width="97" height="90" viewBox="0 0 97 90" fill="none" xmlns="http://www.w3.org/2000/svg">
<path d="M48.5 43.125C45.8202 43.125 43.2502 42.1373 41.3553 40.3791C39.4604 38.621 38.3959 36.2364 38.3959 33.75C38.3959 31.2636 39.4604 28.879 41.3553 27.1209C43.2502 25.3627 45.8202 24.375 48.5 24.375C51.1798 24.375 53.7499 25.3627 55.6448 27.1209C57.5397 28.879 58.6042 31.2636 58.6042 33.75C58.6042 34.9811 58.3429 36.2002 57.8351 37.3377C57.3273 38.4751 56.583 39.5086 55.6448 40.3791C54.7065 41.2497 53.5926 41.9402 52.3667 42.4114C51.1408 42.8825 49.8269 43.125 48.5 43.125ZM48.5 7.5C40.9966 7.5 33.8005 10.2656 28.4948 15.1884C23.1891 20.1113 20.2084 26.7881 20.2084 33.75C20.2084 53.4375 48.5 82.5 48.5 82.5C48.5 82.5 76.7917 53.4375 76.7917 33.75C76.7917 26.7881 73.811 20.1113 68.5053 15.1884C63.1996 10.2656 56.0035 7.5 48.5 7.5Z" fill="white"/>
</svg>
