<svg width="307" height="107" viewBox="0 0 307 107" fill="none" xmlns="http://www.w3.org/2000/svg">
<path d="M35.6354 72.6609C35.6354 78.7404 38.5688 82.9382 44.8204 82.9382C51.0479 82.9382 53.9573 78.7694 53.9573 72.6319V57.8384H49.5331V72.4872C49.5331 75.9323 47.9702 78.2772 44.8204 78.2772C41.6465 78.2772 40.0596 75.9323 40.0596 72.4872V57.8384H35.6354V72.6609Z" fill="white"/>
<path d="M77.8337 82.504L73.2412 73.0951C75.4533 72.4872 77.7135 70.1422 77.7135 65.7707C77.7135 61.1966 75.1167 57.8384 70.8368 57.8384H61.243V82.504H65.6191V73.6741H68.8171L72.8325 82.504H77.8337ZM73.2653 65.7418C73.2653 67.8262 71.9428 69.1579 70.1876 69.1579H65.6191V62.3257H70.1876C71.9428 62.3257 73.2653 63.6574 73.2653 65.7418Z" fill="white"/>
<path d="M95.3705 82.504C99.2657 82.504 101.334 79.551 101.334 75.8454C101.334 72.7477 99.5783 70.1712 97.3902 69.7659C99.3379 69.3027 100.925 67.2182 100.925 64.1206C100.925 60.8203 98.9291 57.8384 95.0339 57.8384H84.2379V82.504H95.3705ZM88.614 62.2967H94.0721C95.5629 62.2967 96.4766 63.4837 96.4766 65.018C96.4766 66.5813 95.5629 67.7394 94.0721 67.7394H88.614V62.2967ZM88.614 72.2266H94.2404C95.9476 72.2266 96.8853 73.5583 96.8853 75.0927C96.8853 76.8876 95.8995 78.0167 94.2404 78.0167H88.614V72.2266Z" fill="white"/>
<path d="M126.963 82.504L119.076 57.8384H113.594L105.683 82.504H110.468L111.767 78.2483H120.904L122.202 82.504H126.963ZM119.725 73.7031H112.921L116.335 62.3836L119.725 73.7031Z" fill="white"/>
<path d="M150.448 82.504V57.8384H146.096V73.8189L136.599 57.8384H132.103V82.504H136.479V65.9155L146.241 82.504H150.448Z" fill="white"/>
<path d="M174.332 82.504L169.739 73.0951C171.951 72.4872 174.211 70.1422 174.211 65.7707C174.211 61.1966 171.615 57.8384 167.335 57.8384H157.741V82.504H162.117V73.6741H165.315L169.33 82.504H174.332ZM169.763 65.7418C169.763 67.8262 168.441 69.1579 166.686 69.1579H162.117V62.3257H166.686C168.441 62.3257 169.763 63.6574 169.763 65.7418Z" fill="white"/>
<path d="M179.75 70.1712C179.75 77.6114 184.27 82.9382 190.45 82.9382C196.653 82.9382 201.174 77.6114 201.174 70.1712C201.174 62.7599 196.653 57.4331 190.45 57.4331C184.27 57.4331 179.75 62.7599 179.75 70.1712ZM196.701 70.1712C196.701 74.7743 194.225 78.2773 190.45 78.2773C186.675 78.2773 184.246 74.7743 184.246 70.1712C184.246 65.5681 186.675 62.0941 190.45 62.0941C194.225 62.0941 196.701 65.5681 196.701 70.1712Z" fill="white"/>
<path d="M206.495 70.1712C206.495 77.6114 211.015 82.9382 217.195 82.9382C223.398 82.9382 227.919 77.6114 227.919 70.1712C227.919 62.7599 223.398 57.4331 217.195 57.4331C211.015 57.4331 206.495 62.7599 206.495 70.1712ZM223.446 70.1712C223.446 74.7743 220.97 78.2773 217.195 78.2773C213.42 78.2773 210.991 74.7743 210.991 70.1712C210.991 65.5681 213.42 62.0941 217.195 62.0941C220.97 62.0941 223.446 65.5681 223.446 70.1712Z" fill="white"/>
<path d="M243.363 82.504V62.4415H249.326V57.8384H232.976V62.4415H238.963V82.504H243.363Z" fill="white"/>
<path d="M253.951 79.0298C255.875 81.3458 258.712 82.9381 262.631 82.9381C268.161 82.9381 270.83 79.5509 270.83 75.0347C270.83 69.5631 266.55 68.3472 263.16 67.4208C260.804 66.7549 259.073 66.2338 259.073 64.5547C259.073 63.0783 260.106 62.036 262.078 62.036C264.074 62.036 266.286 62.9046 267.945 64.7574L270.373 60.907C268.354 58.6489 265.637 57.4619 262.391 57.4619C257.558 57.4619 254.624 60.7912 254.624 64.9021C254.624 70.4027 258.928 71.5028 262.27 72.4292C264.627 73.095 266.406 73.7319 266.406 75.5847C266.406 77.0033 265.252 78.364 262.848 78.364C260.034 78.364 257.774 76.8296 256.331 75.0347L253.951 79.0298Z" fill="white"/>
<mask id="mask0_11_111" style="mask-type:luminance" maskUnits="userSpaceOnUse" x="100" y="9" width="37" height="38">
<path d="M100.933 9.26416H136.326V46.3204H100.933V9.26416Z" fill="white"/>
</mask>
<g mask="url(#mask0_11_111)">
<path fill-rule="evenodd" clip-rule="evenodd" d="M108.711 15.235C125.614 15.1409 134.691 24.6438 135.467 44.3155C135.479 44.5616 135.779 44.5761 135.803 44.33C136.561 37.903 136.416 32.0479 135.058 26.9526C130.586 10.147 113.532 7.94681 101.426 13.2592C100.824 13.527 100.698 14.4679 101.203 14.9455C110.641 24.0359 109.36 48.8462 132.335 38.0912C128.746 24.6656 121.389 16.3424 108.711 15.235Z" fill="white"/>
</g>
<mask id="mask1_11_111" style="mask-type:luminance" maskUnits="userSpaceOnUse" x="136" y="1" width="44" height="44">
<path d="M136.561 1.85278H179.077V44.4675H136.561V1.85278Z" fill="white"/>
</mask>
<g mask="url(#mask1_11_111)">
<path fill-rule="evenodd" clip-rule="evenodd" d="M169.808 8.70667C149.623 8.5981 138.791 19.9394 137.865 43.4252C137.853 43.722 137.492 43.7364 137.462 43.4469C136.561 35.7751 136.735 28.7764 138.352 22.7041C143.69 2.63436 164.056 0.00712677 178.5 6.35446C179.222 6.67291 179.366 7.7875 178.771 8.3665C167.5 19.2156 169.033 48.8317 141.604 35.9995C145.884 19.9683 154.672 10.0311 169.808 8.70667Z" fill="white"/>
</g>
</svg>
