<svg width="66" height="72" viewBox="0 0 66 72" fill="none" xmlns="http://www.w3.org/2000/svg">
<path d="M11.3449 0L8.02607 3.80672L12.9643 9.47618L16.2784 5.66946L11.3449 0ZM54.6574 0L49.7192 5.66946L53.0357 9.47618L57.9716 3.80942L54.6574 0ZM33 1.68947C32.2221 1.69669 31.4364 1.75445 30.6429 1.86275H30.5721C21.0116 3.12172 13.4027 11.9941 12.0804 22.9269C11.0244 31.7262 14.1829 39.7052 19.4464 44.844C21.5992 46.9549 23.0554 49.851 23.5714 53.0476V69.2925H28.9457C29.766 70.9089 31.2628 72 33 72C34.7372 72 36.234 70.9089 37.0543 69.2925H42.4286V58.4626H42.6501V55.2461C42.6501 51.277 44.4463 47.2753 47.3644 44.1644C51.2679 39.6754 54.2143 33.2993 54.2143 25.9756C54.2143 12.6006 44.6301 1.56492 33 1.68947ZM33 7.10443C42.1104 6.95822 49.5 15.5247 49.5 25.9756C49.5 31.645 47.2136 36.6376 44.0479 40.2711L44.1234 40.3577C40.9787 43.6909 38.9448 48.1796 38.3719 53.0504H28.0618C27.5432 48.4097 25.8107 43.918 22.5366 40.6961C18.3716 36.6349 15.8895 30.516 16.7192 23.6065C17.7493 15.078 23.7741 8.21991 31.1567 7.28041C31.7663 7.18332 32.3801 7.12547 32.9953 7.10713L33 7.10443ZM0 25.9756V31.3905H7.07143V25.9756H0ZM58.9286 25.9756V31.3905H66V25.9756H58.9286ZM12.9643 47.8899L8.02843 53.5567L11.3449 57.3661L16.2761 51.6966L12.9643 47.8899ZM53.0357 47.8899L49.7216 51.6966L54.6551 57.3661L57.9716 53.5567L53.0357 47.8899ZM28.2857 58.4653H37.7143V63.8803H28.2857V58.4653Z" fill="white"/>
</svg>
