<svg xmlns="http://www.w3.org/2000/svg" xmlns:xlink="http://www.w3.org/1999/xlink" width="69" zoomAndPan="magnify" viewBox="0 0 51.75 26.999998" height="36" preserveAspectRatio="xMidYMid meet" version="1.0"><defs><clipPath id="486575ff5a"><path d="M 0.152344 5 L 23.136719 5 L 23.136719 25 L 0.152344 25 Z M 0.152344 5 " clip-rule="nonzero"/></clipPath><clipPath id="7dee04ca7f"><path d="M 23.289062 1 L 50.90625 1 L 50.90625 24 L 23.289062 24 Z M 23.289062 1 " clip-rule="nonzero"/></clipPath></defs><g clip-path="url(#486575ff5a)"><path fill="#6b7d5c" d="M 5.199219 8.28125 C 16.179688 8.234375 22.074219 13.359375 22.582031 23.972656 C 22.585938 24.105469 22.78125 24.113281 22.800781 23.980469 C 23.289062 20.511719 23.195312 17.351562 22.316406 14.605469 C 19.410156 5.539062 8.332031 4.351562 0.46875 7.21875 C 0.078125 7.363281 0 7.867188 0.324219 8.128906 C 6.457031 13.03125 5.621094 26.414062 20.546875 20.613281 C 18.214844 13.371094 13.4375 8.878906 5.199219 8.28125 " fill-opacity="1" fill-rule="evenodd"/></g><g clip-path="url(#7dee04ca7f)"><path fill="#6b7d5c" d="M 44.882812 4.761719 C 31.777344 4.703125 24.738281 10.824219 24.136719 23.492188 C 24.128906 23.652344 23.898438 23.660156 23.875 23.5 C 23.289062 19.363281 23.402344 15.589844 24.453125 12.3125 C 27.921875 1.488281 41.148438 0.0664062 50.53125 3.492188 C 51 3.664062 51.09375 4.265625 50.707031 4.578125 C 43.386719 10.433594 44.382812 26.40625 26.566406 19.484375 C 29.347656 10.835938 35.050781 5.476562 44.882812 4.761719 " fill-opacity="1" fill-rule="evenodd"/></g></svg>