<svg width="111" height="98" viewBox="0 0 111 98" fill="none" xmlns="http://www.w3.org/2000/svg">
<path d="M90.8182 0L65.5909 22.05V75.95L90.8182 53.9V0ZM27.75 14.7C17.9114 14.7 7.31591 16.66 0 22.05V93.884C0 95.109 1.26136 96.334 2.52273 96.334C3.02727 96.334 3.27955 95.991 3.78409 95.991C10.5955 92.806 20.4341 90.65 27.75 90.65C37.5886 90.65 48.1841 92.61 55.5 98C62.3114 93.835 74.6727 90.65 83.25 90.65C91.575 90.65 100.152 92.169 107.216 95.844C107.72 96.089 107.973 95.991 108.477 95.991C109.739 95.991 111 94.766 111 93.541V22.05C107.973 19.845 104.693 18.375 100.909 17.15V83.3C95.3591 81.585 89.3045 80.85 83.25 80.85C74.6727 80.85 62.3114 84.035 55.5 88.2V22.05C48.1841 16.66 37.5886 14.7 27.75 14.7Z" fill="black"/>
</svg>
