<svg width="80" height="83" viewBox="0 0 80 83" fill="none" xmlns="http://www.w3.org/2000/svg">
<path d="M22.8571 24.5926C25.8882 24.5926 28.7951 23.2971 30.9384 20.9911C33.0816 18.6851 34.2857 15.5575 34.2857 12.2963C34.2857 9.03512 33.0816 5.9075 30.9384 3.6015C28.7951 1.2955 25.8882 0 22.8571 0C19.8261 0 16.9192 1.2955 14.7759 3.6015C12.6326 5.9075 11.4286 9.03512 11.4286 12.2963C11.4286 15.5575 12.6326 18.6851 14.7759 20.9911C16.9192 23.2971 19.8261 24.5926 22.8571 24.5926ZM0 38.4259C0 36.3877 0.752549 34.4329 2.09209 32.9917C3.43164 31.5504 5.24845 30.7407 7.14286 30.7407H25.3571C24.6477 32.7006 24.2843 34.7856 24.2857 36.8889C24.2857 42.6067 26.9229 47.6635 30.9629 50.7222H24.2857C22.1964 50.7219 20.1469 51.3379 18.3602 52.5031C16.5734 53.6684 15.1178 55.3384 14.1514 57.3315C8.67714 55.816 5.17429 52.8679 3.01143 49.5233C-3.40598e-07 44.8661 0 40.0429 0 39.1944V38.4259ZM65.8486 57.3315C71.3229 55.816 74.8257 52.8679 76.9886 49.5233C80 44.8661 80 40.0398 80 39.1944V38.4259C80 36.3877 79.2475 34.4329 77.9079 32.9917C76.5684 31.5504 74.7515 30.7407 72.8571 30.7407H54.6429C55.3343 32.6467 55.7143 34.7186 55.7143 36.8889C55.7143 42.6067 53.0771 47.6635 49.0371 50.7222H55.7143C57.8036 50.7219 59.8531 51.3379 61.6398 52.5031C63.4266 53.6684 64.8822 55.3384 65.8486 57.3315ZM68.5714 12.2963C68.5714 15.5575 67.3673 18.6851 65.2241 20.9911C63.0808 23.2971 60.1739 24.5926 57.1429 24.5926C54.1118 24.5926 51.2049 23.2971 49.0616 20.9911C46.9184 18.6851 45.7143 15.5575 45.7143 12.2963C45.7143 9.03512 46.9184 5.9075 49.0616 3.6015C51.2049 1.2955 54.1118 0 57.1429 0C60.1739 0 63.0808 1.2955 65.2241 3.6015C67.3673 5.9075 68.5714 9.03512 68.5714 12.2963ZM17.1429 63.0185C17.1429 60.9803 17.8954 59.0255 19.235 57.5843C20.5745 56.143 22.3913 55.3333 24.2857 55.3333H55.7143C56.6523 55.3333 57.5811 55.5321 58.4477 55.9183C59.3144 56.3046 60.1018 56.8706 60.765 57.5843C61.4283 58.2979 61.9545 59.1451 62.3134 60.0775C62.6724 61.0099 62.8571 62.0093 62.8571 63.0185V63.787C62.8571 64.6324 62.8571 69.4587 59.8457 74.1159C56.7029 78.976 50.7314 83 40 83C29.2686 83 23.2971 78.976 20.1543 74.1159C17.1429 69.4587 17.1429 64.6355 17.1429 63.787V63.0185ZM40 49.1852C43.031 49.1852 45.9379 47.8897 48.0812 45.5837C50.2245 43.2777 51.4286 40.1501 51.4286 36.8889C51.4286 33.6277 50.2245 30.5001 48.0812 28.1941C45.9379 25.8881 43.031 24.5926 40 24.5926C36.969 24.5926 34.0621 25.8881 31.9188 28.1941C29.7755 30.5001 28.5714 33.6277 28.5714 36.8889C28.5714 40.1501 29.7755 43.2777 31.9188 45.5837C34.0621 47.8897 36.969 49.1852 40 49.1852Z" fill="black"/>
</svg>
