<svg width="83" height="84" viewBox="0 0 83 84" fill="none" xmlns="http://www.w3.org/2000/svg">
<g clip-path="url(#clip0_11_26)">
<path d="M74.9756 28.2188C76.1914 28.9023 77.2992 29.7363 78.2988 30.7207C79.2985 31.7051 80.1361 32.7988 80.8115 34.002C81.487 35.2051 82.0273 36.4766 82.4326 37.8164C82.8379 39.1563 83.027 40.5508 83 42H77.8125C77.8125 40.5781 77.5423 39.2246 77.002 37.9395C76.4616 36.6543 75.7186 35.5469 74.7729 34.6172C73.8273 33.6875 72.7196 32.9355 71.4497 32.3613C70.1799 31.7871 68.8424 31.5 67.4375 31.5C66.0055 31.5 64.6681 31.7734 63.4253 32.3203C62.1825 32.8672 61.0882 33.6191 60.1426 34.5762C59.1969 35.5332 58.4539 36.6543 57.9136 37.9395C57.3732 39.2246 57.0895 40.5781 57.0625 42C57.0625 44.4883 56.5086 46.8535 55.4009 49.0957C54.2931 51.3379 52.7396 53.1973 50.7402 54.6738C52.4964 55.5762 54.077 56.6836 55.4819 57.9961C56.8869 59.3086 58.1027 60.7852 59.1294 62.4258C60.1561 64.0664 60.9261 65.8164 61.4395 67.6758C61.9528 69.5352 62.223 71.4766 62.25 73.5H57.0625C57.0625 71.3398 56.6572 69.3027 55.8467 67.3887C55.0361 65.4746 53.9149 63.8066 52.4829 62.3848C51.0509 60.9629 49.4028 59.8418 47.5386 59.0215C45.6743 58.2012 43.6615 57.7773 41.5 57.75C39.3656 57.75 37.3527 58.1602 35.4614 58.9805C33.5701 59.8008 31.922 60.9355 30.5171 62.3848C29.1121 63.834 28.0044 65.502 27.1938 67.3887C26.3833 69.2754 25.9645 71.3125 25.9375 73.5H20.75C20.75 71.5039 21.0202 69.5762 21.5605 67.7168C22.1009 65.8574 22.8709 64.1074 23.8706 62.4668C24.8703 60.8262 26.0726 59.3496 27.4775 58.0371C28.8825 56.7246 30.4766 55.6035 32.2598 54.6738C30.2874 53.1973 28.7474 51.3379 27.6396 49.0957C26.5319 46.8535 25.9645 44.4883 25.9375 42C25.9375 40.5781 25.6673 39.2246 25.127 37.9395C24.5866 36.6543 23.8436 35.5469 22.8979 34.6172C21.9523 33.6875 20.8446 32.9355 19.5747 32.3613C18.3049 31.7871 16.9674 31.5 15.5625 31.5C14.1305 31.5 12.7931 31.7734 11.5503 32.3203C10.3075 32.8672 9.21322 33.6191 8.26758 34.5762C7.32194 35.5332 6.57894 36.6543 6.03857 37.9395C5.49821 39.2246 5.21452 40.5781 5.1875 42H0C0 40.5781 0.189128 39.1973 0.567383 37.8574C0.945638 36.5176 1.47249 35.2461 2.14795 34.043C2.8234 32.8398 3.67448 31.7461 4.70117 30.7617C5.72786 29.7773 6.83561 28.9297 8.02441 28.2188C7.13281 27.2617 6.44385 26.1543 5.95752 24.8965C5.47119 23.6387 5.21452 22.3398 5.1875 21C5.1875 19.5781 5.45768 18.2246 5.99805 16.9395C6.53841 15.6543 7.28141 14.5469 8.22705 13.6172C9.17269 12.6875 10.2669 11.9355 11.5098 11.3613C12.7526 10.7871 14.1035 10.5 15.5625 10.5C16.9674 10.5 18.3049 10.7734 19.5747 11.3203C20.8446 11.8672 21.9388 12.6191 22.8574 13.5762C23.776 14.5332 24.519 15.6543 25.0864 16.9395C25.6538 18.2246 25.9375 19.5781 25.9375 21C25.9375 22.3398 25.6943 23.6387 25.208 24.8965C24.7217 26.1543 24.0192 27.2617 23.1006 28.2188C25.3161 29.4492 27.1263 31.1445 28.5312 33.3047C29.9902 31.1172 31.8545 29.3945 34.124 28.1367C36.3936 26.8789 38.8522 26.25 41.5 26.25C44.1208 26.25 46.5659 26.8789 48.8354 28.1367C51.105 29.3945 52.9827 31.1172 54.4688 33.3047C55.8737 31.1445 57.6839 29.4492 59.8994 28.2188C59.0078 27.2617 58.3188 26.1543 57.8325 24.8965C57.3462 23.6387 57.0895 22.3398 57.0625 21C57.0625 19.5781 57.3327 18.2246 57.873 16.9395C58.4134 15.6543 59.1564 14.5469 60.1021 13.6172C61.0477 12.6875 62.1419 11.9355 63.3848 11.3613C64.6276 10.7871 65.9785 10.5 67.4375 10.5C68.8424 10.5 70.1799 10.7734 71.4497 11.3203C72.7196 11.8672 73.8138 12.6191 74.7324 13.5762C75.651 14.5332 76.394 15.6543 76.9614 16.9395C77.5288 18.2246 77.8125 19.5781 77.8125 21C77.8125 22.3398 77.5693 23.6387 77.083 24.8965C76.5967 26.1543 75.8942 27.2617 74.9756 28.2188ZM10.375 21C10.375 21.7383 10.5101 22.4219 10.7803 23.0508C11.0505 23.6797 11.4152 24.2266 11.8745 24.6914C12.3338 25.1562 12.8877 25.5391 13.5361 25.8398C14.1846 26.1406 14.86 26.2773 15.5625 26.25C16.292 26.25 16.9674 26.1133 17.5889 25.8398C18.2103 25.5664 18.7507 25.1973 19.21 24.7324C19.6693 24.2676 20.0475 23.707 20.3447 23.0508C20.6419 22.3945 20.777 21.7109 20.75 21C20.75 20.2617 20.6149 19.5781 20.3447 18.9492C20.0745 18.3203 19.7098 17.7734 19.2505 17.3086C18.7912 16.8438 18.2373 16.4609 17.5889 16.1602C16.9404 15.8594 16.265 15.7227 15.5625 15.75C14.833 15.75 14.1576 15.8867 13.5361 16.1602C12.9147 16.4336 12.3743 16.8027 11.915 17.2676C11.4557 17.7324 11.0775 18.293 10.7803 18.9492C10.4831 19.6055 10.348 20.2891 10.375 21ZM41.5 52.5C42.9049 52.5 44.2424 52.2266 45.5122 51.6797C46.7821 51.1328 47.8763 50.3809 48.7949 49.4238C49.7135 48.4668 50.4565 47.3594 51.0239 46.1016C51.5913 44.8438 51.875 43.4766 51.875 42C51.875 40.5781 51.6048 39.2246 51.0645 37.9395C50.5241 36.6543 49.7811 35.5469 48.8354 34.6172C47.8898 33.6875 46.7821 32.9355 45.5122 32.3613C44.2424 31.7871 42.9049 31.5 41.5 31.5C40.068 31.5 38.7306 31.7734 37.4878 32.3203C36.245 32.8672 35.1507 33.6191 34.2051 34.5762C33.2594 35.5332 32.5164 36.6543 31.9761 37.9395C31.4357 39.2246 31.152 40.5781 31.125 42C31.125 43.4492 31.3952 44.8027 31.9355 46.0605C32.4759 47.3184 33.2189 48.4258 34.1646 49.3828C35.1102 50.3398 36.2044 51.0918 37.4473 51.6387C38.6901 52.1855 40.041 52.4727 41.5 52.5ZM62.25 21C62.25 21.7383 62.3851 22.4219 62.6553 23.0508C62.9255 23.6797 63.2902 24.2266 63.7495 24.6914C64.2088 25.1562 64.7627 25.5391 65.4111 25.8398C66.0596 26.1406 66.735 26.2773 67.4375 26.25C68.167 26.25 68.8424 26.1133 69.4639 25.8398C70.0853 25.5664 70.6257 25.1973 71.085 24.7324C71.5443 24.2676 71.9225 23.707 72.2197 23.0508C72.5169 22.3945 72.652 21.7109 72.625 21C72.625 20.2617 72.4899 19.5781 72.2197 18.9492C71.9495 18.3203 71.5848 17.7734 71.1255 17.3086C70.6662 16.8438 70.1123 16.4609 69.4639 16.1602C68.8154 15.8594 68.14 15.7227 67.4375 15.75C66.708 15.75 66.0326 15.8867 65.4111 16.1602C64.7897 16.4336 64.2493 16.8027 63.79 17.2676C63.3307 17.7324 62.9525 18.293 62.6553 18.9492C62.3581 19.6055 62.223 20.2891 62.25 21Z" fill="white"/>
</g>
<defs>
<clipPath id="clip0_11_26">
<rect width="83" height="84" fill="white"/>
</clipPath>
</defs>
</svg>
