<svg xmlns="http://www.w3.org/2000/svg" xmlns:xlink="http://www.w3.org/1999/xlink" width="266" zoomAndPan="magnify" viewBox="0 0 199.5 57.749997" height="77" preserveAspectRatio="xMidYMid meet" version="1.0"><defs><g/><clipPath id="d5e7cf9d76"><path d="M 73.828125 5 L 96.828125 5 L 96.828125 25 L 73.828125 25 Z M 73.828125 5 " clip-rule="nonzero"/></clipPath><clipPath id="a16fcbc7cc"><path d="M 97 1 L 124.609375 1 L 124.609375 24 L 97 24 Z M 97 1 " clip-rule="nonzero"/></clipPath></defs><g fill="#6b7d5c" fill-opacity="1"><g transform="translate(21.844694, 44.529011)"><g><path d="M 1.3125 -5.3125 C 1.3125 -2.03125 3.21875 0.234375 7.28125 0.234375 C 11.328125 0.234375 13.21875 -2.015625 13.21875 -5.328125 L 13.21875 -13.3125 L 10.34375 -13.3125 L 10.34375 -5.40625 C 10.34375 -3.546875 9.328125 -2.28125 7.28125 -2.28125 C 5.21875 -2.28125 4.1875 -3.546875 4.1875 -5.40625 L 4.1875 -13.3125 L 1.3125 -13.3125 Z M 1.3125 -5.3125 "/></g></g></g><g fill="#6b7d5c" fill-opacity="1"><g transform="translate(38.485526, 44.529011)"><g><path d="M 12.09375 0 L 9.109375 -5.078125 C 10.546875 -5.40625 12.015625 -6.671875 12.015625 -9.03125 C 12.015625 -11.5 10.328125 -13.3125 7.546875 -13.3125 L 1.3125 -13.3125 L 1.3125 0 L 4.15625 0 L 4.15625 -4.765625 L 6.234375 -4.765625 L 8.84375 0 Z M 9.125 -9.046875 C 9.125 -7.921875 8.265625 -7.203125 7.125 -7.203125 L 4.15625 -7.203125 L 4.15625 -10.890625 L 7.125 -10.890625 C 8.265625 -10.890625 9.125 -10.171875 9.125 -9.046875 Z M 9.125 -9.046875 "/></g></g></g><g fill="#6b7d5c" fill-opacity="1"><g transform="translate(53.42839, 44.529011)"><g><path d="M 8.546875 0 C 11.078125 0 12.421875 -1.59375 12.421875 -3.59375 C 12.421875 -5.265625 11.28125 -6.65625 9.859375 -6.875 C 11.125 -7.125 12.15625 -8.25 12.15625 -9.921875 C 12.15625 -11.703125 10.859375 -13.3125 8.328125 -13.3125 L 1.3125 -13.3125 L 1.3125 0 Z M 4.15625 -10.90625 L 7.703125 -10.90625 C 8.671875 -10.90625 9.265625 -10.265625 9.265625 -9.4375 C 9.265625 -8.59375 8.671875 -7.96875 7.703125 -7.96875 L 4.15625 -7.96875 Z M 4.15625 -5.546875 L 7.8125 -5.546875 C 8.921875 -5.546875 9.53125 -4.828125 9.53125 -4 C 9.53125 -3.03125 8.890625 -2.421875 7.8125 -2.421875 L 4.15625 -2.421875 Z M 4.15625 -5.546875 "/></g></g></g><g fill="#6b7d5c" fill-opacity="1"><g transform="translate(68.770777, 44.529011)"><g><path d="M 13.734375 0 L 8.609375 -13.3125 L 5.046875 -13.3125 L -0.09375 0 L 3.015625 0 L 3.859375 -2.296875 L 9.796875 -2.296875 L 10.640625 0 Z M 9.03125 -4.75 L 4.609375 -4.75 L 6.828125 -10.859375 Z M 9.03125 -4.75 "/></g></g></g><g fill="#6b7d5c" fill-opacity="1"><g transform="translate(84.532663, 44.529011)"><g><path d="M 13.234375 0 L 13.234375 -13.3125 L 10.40625 -13.3125 L 10.40625 -4.6875 L 4.234375 -13.3125 L 1.3125 -13.3125 L 1.3125 0 L 4.15625 0 L 4.15625 -8.953125 L 10.5 0 Z M 13.234375 0 "/></g></g></g><g fill="#6b7d5c" fill-opacity="1"><g transform="translate(101.193469, 44.529011)"><g><path d="M 12.09375 0 L 9.109375 -5.078125 C 10.546875 -5.40625 12.015625 -6.671875 12.015625 -9.03125 C 12.015625 -11.5 10.328125 -13.3125 7.546875 -13.3125 L 1.3125 -13.3125 L 1.3125 0 L 4.15625 0 L 4.15625 -4.765625 L 6.234375 -4.765625 L 8.84375 0 Z M 9.125 -9.046875 C 9.125 -7.921875 8.265625 -7.203125 7.125 -7.203125 L 4.15625 -7.203125 L 4.15625 -10.890625 L 7.125 -10.890625 C 8.265625 -10.890625 9.125 -10.171875 9.125 -9.046875 Z M 9.125 -9.046875 "/></g></g></g><g fill="#6b7d5c" fill-opacity="1"><g transform="translate(116.136333, 44.529011)"><g><path d="M 0.671875 -6.65625 C 0.671875 -2.640625 3.609375 0.234375 7.625 0.234375 C 11.65625 0.234375 14.59375 -2.640625 14.59375 -6.65625 C 14.59375 -10.65625 11.65625 -13.53125 7.625 -13.53125 C 3.609375 -13.53125 0.671875 -10.65625 0.671875 -6.65625 Z M 11.6875 -6.65625 C 11.6875 -4.171875 10.078125 -2.28125 7.625 -2.28125 C 5.171875 -2.28125 3.59375 -4.171875 3.59375 -6.65625 C 3.59375 -9.140625 5.171875 -11.015625 7.625 -11.015625 C 10.078125 -11.015625 11.6875 -9.140625 11.6875 -6.65625 Z M 11.6875 -6.65625 "/></g></g></g><g fill="#6b7d5c" fill-opacity="1"><g transform="translate(133.516286, 44.529011)"><g><path d="M 0.671875 -6.65625 C 0.671875 -2.640625 3.609375 0.234375 7.625 0.234375 C 11.65625 0.234375 14.59375 -2.640625 14.59375 -6.65625 C 14.59375 -10.65625 11.65625 -13.53125 7.625 -13.53125 C 3.609375 -13.53125 0.671875 -10.65625 0.671875 -6.65625 Z M 11.6875 -6.65625 C 11.6875 -4.171875 10.078125 -2.28125 7.625 -2.28125 C 5.171875 -2.28125 3.59375 -4.171875 3.59375 -6.65625 C 3.59375 -9.140625 5.171875 -11.015625 7.625 -11.015625 C 10.078125 -11.015625 11.6875 -9.140625 11.6875 -6.65625 Z M 11.6875 -6.65625 "/></g></g></g><g fill="#6b7d5c" fill-opacity="1"><g transform="translate(150.896239, 44.529011)"><g><path d="M 7.25 0 L 7.25 -10.828125 L 11.125 -10.828125 L 11.125 -13.3125 L 0.5 -13.3125 L 0.5 -10.828125 L 4.390625 -10.828125 L 4.390625 0 Z M 7.25 0 "/></g></g></g><g fill="#6b7d5c" fill-opacity="1"><g transform="translate(164.62057, 44.529011)"><g><path d="M 0.40625 -1.875 C 1.65625 -0.625 3.5 0.234375 6.046875 0.234375 C 9.640625 0.234375 11.375 -1.59375 11.375 -4.03125 C 11.375 -6.984375 8.59375 -7.640625 6.390625 -8.140625 C 4.859375 -8.5 3.734375 -8.78125 3.734375 -9.6875 C 3.734375 -10.484375 4.40625 -11.046875 5.6875 -11.046875 C 6.984375 -11.046875 8.421875 -10.578125 9.5 -9.578125 L 11.078125 -11.65625 C 9.765625 -12.875 8 -13.515625 5.890625 -13.515625 C 2.75 -13.515625 0.84375 -11.71875 0.84375 -9.5 C 0.84375 -6.53125 3.640625 -5.9375 5.8125 -5.4375 C 7.34375 -5.078125 8.5 -4.734375 8.5 -3.734375 C 8.5 -2.96875 7.75 -2.234375 6.1875 -2.234375 C 4.359375 -2.234375 2.890625 -3.0625 1.953125 -4.03125 Z M 0.40625 -1.875 "/></g></g></g><g clip-path="url(#d5e7cf9d76)"><path fill="#6b7d5c" d="M 78.878906 8.222656 C 89.867188 8.171875 95.761719 13.300781 96.269531 23.917969 C 96.273438 24.050781 96.46875 24.058594 96.488281 23.925781 C 96.980469 20.457031 96.882812 17.296875 96.003906 14.546875 C 93.097656 5.476562 82.011719 4.289062 74.148438 7.15625 C 73.753906 7.300781 73.675781 7.808594 74 8.066406 C 80.136719 12.972656 79.300781 26.363281 94.234375 20.558594 C 91.902344 13.3125 87.121094 8.820312 78.878906 8.222656 " fill-opacity="1" fill-rule="evenodd"/></g><g clip-path="url(#a16fcbc7cc)"><path fill="#6b7d5c" d="M 118.582031 4.699219 C 105.46875 4.640625 98.429688 10.761719 97.828125 23.4375 C 97.820312 23.597656 97.585938 23.605469 97.5625 23.449219 C 96.976562 19.308594 97.089844 15.53125 98.144531 12.253906 C 101.613281 1.421875 114.84375 0.00390625 124.234375 3.429688 C 124.703125 3.601562 124.796875 4.203125 124.40625 4.515625 C 117.082031 10.371094 118.082031 26.355469 100.253906 19.429688 C 103.039062 10.777344 108.746094 5.414062 118.582031 4.699219 " fill-opacity="1" fill-rule="evenodd"/></g></svg>