<svg width="78" height="81" viewBox="0 0 78 81" fill="none" xmlns="http://www.w3.org/2000/svg">
<path fill-rule="evenodd" clip-rule="evenodd" d="M78.0001 15.7103V15.45C77.9995 15.3706 77.9958 15.2912 77.9891 15.2121C77.993 15.3782 78.0001 15.5434 78.0001 15.7103ZM57.72 4.48867H63.18V12.5683H70.2V18.8524H63.18V26.932H57.72V18.8524H50.7V12.5683H57.72V4.48867ZM60.45 0C52.8879 0 46.8 7.00681 46.8 15.7103C46.8 24.4139 52.8879 31.4207 60.45 31.4207C68.0121 31.4207 74.1 24.4139 74.1 15.7103C74.1 7.00681 68.0121 0 60.45 0Z" fill="white"/>
<path fill-rule="evenodd" clip-rule="evenodd" d="M3.9 5.76177L25.1745 17.1361L25.4639 75.4439L3.9 63.9116V5.76177ZM2.01708 0.00190823C1.75554 -0.00845271 1.49487 0.0418801 1.25059 0.149908C1.00632 0.257935 0.783429 0.421448 0.595212 0.630703C0.406994 0.839959 0.257297 1.09068 0.155039 1.36792C0.0527813 1.64516 5.44692e-05 1.94326 0 2.24445L0 65.3462C6.236e-05 65.774 0.106333 66.1928 0.306295 66.5534C0.506256 66.9139 0.79158 67.2012 1.12866 67.3814L25.8281 80.5871C26.0912 80.7278 26.3781 80.7993 26.6682 80.7962C26.9464 80.7937 27.2208 80.7227 27.4732 80.588L51.3513 67.8213L75.2294 80.5871C75.5265 80.7457 75.8535 80.8156 76.1803 80.7904C76.507 80.7652 76.823 80.6457 77.0991 80.443C77.3751 80.2402 77.6024 79.9606 77.7598 79.6301C77.9173 79.2996 77.9999 78.9288 78 78.5519V15.7105C78.002 20.3232 76.6249 24.7962 74.1 28.3784V75.0346L52.5112 63.4924L52.363 33.6248C51.5431 33.133 50.758 32.5678 50.0152 31.9343L50.1712 63.5005L27.8039 75.461L27.5161 17.462L44.0131 8.64081C44.8738 6.01222 46.1995 3.61799 47.906 1.60975L26.6495 12.9751L2.77134 0.209285C2.53452 0.0827374 2.27803 0.0122176 2.01708 0.00190823Z" fill="white"/>
</svg>
