<svg width="73" height="87" viewBox="0 0 73 87" fill="none" xmlns="http://www.w3.org/2000/svg">
<path d="M12.5482 0L8.87732 4.56437L14.3393 11.3622L18.0049 6.79786L12.5482 0ZM60.4544 0L54.9925 6.79786L58.6607 11.3622L64.1201 4.56761L60.4544 0ZM36.5 2.02572C35.6396 2.03438 34.7706 2.10364 33.8929 2.23349H33.8146C23.2401 3.74304 14.8242 14.3813 13.3616 27.4901C12.1936 38.0407 15.6872 47.6077 21.5089 53.7693C23.89 56.3003 25.5007 59.7728 26.0714 63.6057V83.0838H32.0157C32.923 85.0219 34.5785 86.3302 36.5 86.3302C38.4215 86.3302 40.077 85.0219 40.9843 83.0838H46.9286V70.0984H47.1736V66.2418C47.1736 61.4826 49.1603 56.6845 52.3879 52.9545C56.7054 47.572 59.9643 39.9268 59.9643 31.1455C59.9643 15.1085 49.3636 1.87639 36.5 2.02572ZM36.5 8.51842C46.5766 8.34312 54.75 18.6146 54.75 31.1455C54.75 37.9433 52.2211 43.9296 48.7197 48.2862L48.8031 48.3901C45.325 52.3867 43.0753 57.7688 42.4417 63.609H31.038C30.4645 58.0447 28.5482 52.659 24.9269 48.7959C20.3201 43.9264 17.5748 36.5896 18.4925 28.3049C19.6318 18.0789 26.2956 9.85592 34.4612 8.72943C35.1354 8.61301 35.8143 8.54365 36.4948 8.52167L36.5 8.51842ZM0 31.1455V37.6382H7.82143V31.1455H0ZM65.1786 31.1455V37.6382H73V31.1455H65.1786ZM14.3393 57.4214L8.87993 64.216L12.5482 68.7836L18.0023 61.9858L14.3393 57.4214ZM58.6607 57.4214L54.9951 61.9858L60.4518 68.7836L64.1201 64.216L58.6607 57.4214ZM31.2857 70.1017H41.7143V76.5944H31.2857V70.1017Z" fill="white"/>
</svg>
