<svg width="76" height="98" viewBox="0 0 76 98" fill="none" xmlns="http://www.w3.org/2000/svg">
<path d="M20.0857 6.62382C20.035 6.64136 19.9878 6.66829 19.9467 6.70325C15.796 9.65028 12.4072 13.5723 10.0685 18.1358C7.72986 22.6992 6.51055 27.769 6.51429 32.9141C6.51302 38.556 7.98024 44.0979 10.7671 48.9778C13.5541 53.8576 17.5615 57.9018 22.3831 60.7002C24.8585 62.1431 26.6478 64.9143 26.4697 68.1222V68.131L25.093 94.8626C25.0481 95.7391 24.6623 96.5616 24.0205 97.1492C23.3788 97.7367 22.5336 98.0412 21.6709 97.9955C20.8082 97.9499 19.9986 97.5579 19.4204 96.9058C18.8421 96.2537 18.5425 95.3949 18.5874 94.5184L19.9641 67.7692V67.7516C19.9902 67.3544 19.76 66.8028 19.1477 66.4454C13.3299 63.0678 8.49448 58.1872 5.13179 52.2985C1.7691 46.4097 -0.0013303 39.7222 9.1578e-06 32.9141C-0.00423537 26.705 1.46704 20.5867 4.28879 15.0792C7.11053 9.57176 11.1993 4.83794 16.2075 1.28017C17.281 0.49854 18.557 0.0550074 19.8767 0.00479232C21.1964 -0.0454227 22.5015 0.299898 23.6295 0.997759C25.7314 2.28624 27.1429 4.68228 27.1429 7.44015V28.2411C27.1428 28.4296 27.1903 28.615 27.2808 28.7795C27.3712 28.944 27.5017 29.0823 27.6597 29.181L37.4311 35.2925C37.7785 35.5131 38.2215 35.5131 38.5689 35.2925L48.3403 29.181C48.4983 29.0823 48.6288 28.944 48.7192 28.7795C48.8097 28.615 48.8572 28.4296 48.8571 28.2411V7.44457C48.8571 4.68228 50.2686 2.28624 52.3749 0.997759C53.5024 0.300834 54.8066 -0.0439608 56.1254 0.00624993C57.4442 0.0564607 58.7194 0.499462 59.7924 1.28017C64.8013 4.83837 68.8904 9.57289 71.7122 15.0812C74.534 20.5895 76.0049 26.7087 76 32.9185C76.0001 39.7263 74.2287 46.4132 70.8652 52.3011C67.5018 58.1891 62.666 63.0687 56.848 66.4454C56.24 66.8028 56.0098 67.3544 56.0315 67.7516V67.7692L57.4126 94.5184C57.4348 94.9524 57.3727 95.3866 57.2298 95.7963C57.0869 96.2059 56.8659 96.5829 56.5796 96.9058C56.2933 97.2287 55.9472 97.4911 55.561 97.6781C55.1749 97.8651 54.7563 97.9729 54.3291 97.9955C53.902 98.0181 53.4746 97.955 53.0715 97.8098C52.6683 97.6646 52.2972 97.4401 51.9795 97.1492C51.6617 96.8583 51.4034 96.5066 51.2194 96.1143C51.0354 95.7219 50.9292 95.2966 50.907 94.8626L49.5303 68.131V68.1222C49.3522 64.9143 51.1371 62.1431 53.6126 60.7002C58.435 57.9024 62.4433 53.8584 65.231 48.9785C68.0187 44.0987 69.4865 38.5564 69.4857 32.9141C69.4894 27.769 68.2701 22.6992 65.9315 18.1358C63.5928 13.5723 60.204 9.65028 56.0532 6.70325C56.0121 6.66829 55.965 6.64136 55.9143 6.62382L55.8709 6.61941C55.8578 6.61941 55.81 6.61941 55.7362 6.66354C55.5799 6.76061 55.3714 7.01213 55.3714 7.44457V28.2367C55.3714 30.9196 54.0034 33.4083 51.7538 34.8115L41.9824 40.923C40.7847 41.6716 39.4062 42.068 38 42.068C36.5938 42.068 35.2153 41.6716 34.0176 40.923L24.2462 34.8159C23.1415 34.1254 22.2292 33.1591 21.5959 32.009C20.9627 30.859 20.6297 29.5634 20.6286 28.2456V7.44015C20.6286 7.00772 20.4201 6.7562 20.2638 6.66354C20.2218 6.63992 20.1764 6.62352 20.1291 6.615L20.0857 6.62382Z" fill="black"/>
</svg>
