<svg width="266" height="77" viewBox="0 0 266 77" fill="none" xmlns="http://www.w3.org/2000/svg">
<g clip-path="url(#clip0_11_54)">
<mask id="mask0_11_54" style="mask-type:luminance" maskUnits="userSpaceOnUse" x="0" y="0" width="266" height="77">
<path d="M0.239624 0H265.094V76.6667H0.239624V0Z" fill="white"/>
</mask>
<g mask="url(#mask0_11_54)">
<path d="M0.239624 0H265.094V76.6667H0.239624V0Z" fill="white"/>
</g>
<path d="M30.8762 52.2887C30.8762 56.6637 33.4179 59.6845 38.8346 59.6845C44.2304 59.6845 46.7512 56.6845 46.7512 52.2678V41.622H42.9179V52.1637C42.9179 54.6428 41.5637 56.3303 38.8346 56.3303C36.0846 56.3303 34.7096 54.6428 34.7096 52.1637V41.622H30.8762V52.2887Z" fill="#85C484"/>
<path d="M67.4391 59.372L63.4599 52.6012C65.3766 52.1637 67.3349 50.4762 67.3349 47.3303C67.3349 44.0387 65.0849 41.622 61.3766 41.622H53.0641V59.372H56.8558V53.0178H59.6266L63.1058 59.372H67.4391ZM63.4808 47.3095C63.4808 48.8095 62.3349 49.7678 60.8141 49.7678H56.8558V44.8512H60.8141C62.3349 44.8512 63.4808 45.8095 63.4808 47.3095Z" fill="#85C484"/>
<path d="M82.6336 59.372C86.0086 59.372 87.8003 57.247 87.8003 54.5803C87.8003 52.3512 86.2795 50.497 84.3836 50.2053C86.0711 49.872 87.4461 48.372 87.4461 46.1428C87.4461 43.7678 85.717 41.622 82.342 41.622H72.9878V59.372H82.6336ZM76.7795 44.8303H81.5086C82.8003 44.8303 83.592 45.6845 83.592 46.7887C83.592 47.9137 82.8003 48.747 81.5086 48.747H76.7795V44.8303ZM76.7795 51.9762H81.6545C83.1336 51.9762 83.9461 52.9345 83.9461 54.0387C83.9461 55.3303 83.092 56.1428 81.6545 56.1428H76.7795V51.9762Z" fill="#85C484"/>
<path d="M110.007 59.372L103.174 41.622H98.4235L91.5693 59.372H95.7152L96.8402 56.3095H104.757L105.882 59.372H110.007ZM103.736 53.0387H97.8402L100.799 44.8928L103.736 53.0387Z" fill="#85C484"/>
<path d="M130.356 59.372V41.622H126.585V53.122L118.356 41.622H114.46V59.372H118.252V47.4345L126.71 59.372H130.356Z" fill="#85C484"/>
<path d="M151.05 59.372L147.07 52.6012C148.987 52.1637 150.945 50.4762 150.945 47.3303C150.945 44.0387 148.695 41.622 144.987 41.622H136.675V59.372H140.466V53.0178H143.237L146.716 59.372H151.05ZM147.091 47.3095C147.091 48.8095 145.945 49.7678 144.425 49.7678H140.466V44.8512H144.425C145.945 44.8512 147.091 45.8095 147.091 47.3095Z" fill="#85C484"/>
<path d="M155.744 50.497C155.744 55.8512 159.661 59.6845 165.015 59.6845C170.39 59.6845 174.307 55.8512 174.307 50.497C174.307 45.1637 170.39 41.3304 165.015 41.3304C159.661 41.3304 155.744 45.1637 155.744 50.497ZM170.432 50.497C170.432 53.8095 168.286 56.3304 165.015 56.3304C161.744 56.3304 159.64 53.8095 159.64 50.497C159.64 47.1845 161.744 44.6845 165.015 44.6845C168.286 44.6845 170.432 47.1845 170.432 50.497Z" fill="#85C484"/>
<path d="M178.917 50.497C178.917 55.8512 182.834 59.6845 188.188 59.6845C193.563 59.6845 197.48 55.8512 197.48 50.497C197.48 45.1637 193.563 41.3304 188.188 41.3304C182.834 41.3304 178.917 45.1637 178.917 50.497ZM193.605 50.497C193.605 53.8095 191.459 56.3304 188.188 56.3304C184.917 56.3304 182.813 53.8095 182.813 50.497C182.813 47.1845 184.917 44.6845 188.188 44.6845C191.459 44.6845 193.605 47.1845 193.605 50.497Z" fill="#85C484"/>
<path d="M210.862 59.372V44.9345H216.028V41.622H201.862V44.9345H207.049V59.372H210.862Z" fill="#85C484"/>
<path d="M220.036 56.872C221.702 58.5387 224.161 59.6845 227.557 59.6845C232.348 59.6845 234.661 57.247 234.661 53.997C234.661 50.0595 230.952 49.1845 228.015 48.5179C225.973 48.0387 224.473 47.6637 224.473 46.4554C224.473 45.3929 225.369 44.6429 227.077 44.6429C228.807 44.6429 230.723 45.2679 232.161 46.6012L234.265 43.8304C232.515 42.2054 230.161 41.3512 227.348 41.3512C223.161 41.3512 220.619 43.747 220.619 46.7054C220.619 50.6637 224.348 51.4554 227.244 52.122C229.286 52.6012 230.827 53.0595 230.827 54.3929C230.827 55.4137 229.827 56.3929 227.744 56.3929C225.307 56.3929 223.348 55.2887 222.098 53.997L220.036 56.872Z" fill="#85C484"/>
<mask id="mask1_11_54" style="mask-type:luminance" maskUnits="userSpaceOnUse" x="87" y="6" width="32" height="28">
<path d="M87.4531 6.66666H118.12V33.3333H87.4531V6.66666Z" fill="white"/>
</mask>
<g mask="url(#mask1_11_54)">
<path fill-rule="evenodd" clip-rule="evenodd" d="M94.1927 10.9635C108.839 10.8958 116.703 17.7344 117.375 31.8906C117.385 32.0677 117.646 32.0781 117.667 31.901C118.323 27.276 118.198 23.0625 117.021 19.3958C113.146 7.30208 98.3698 5.71875 87.8802 9.54166C87.3594 9.73437 87.25 10.4115 87.6875 10.7552C95.8646 17.2969 94.7552 35.151 114.661 27.4115C111.552 17.75 105.177 11.7604 94.1927 10.9635Z" fill="#85C484"/>
</g>
<mask id="mask2_11_54" style="mask-type:luminance" maskUnits="userSpaceOnUse" x="118" y="1" width="38" height="31">
<path d="M118.323 1.33334H155.161V32H118.323V1.33334Z" fill="white"/>
</mask>
<g mask="url(#mask2_11_54)">
<path fill-rule="evenodd" clip-rule="evenodd" d="M147.13 6.26562C129.641 6.1875 120.255 14.349 119.453 31.25C119.443 31.4635 119.13 31.474 119.104 31.2656C118.323 25.7448 118.474 20.7083 119.875 16.3385C124.5 1.89583 142.146 0.00520524 154.661 4.57291C155.286 4.80208 155.411 5.60416 154.896 6.02083C145.13 13.8281 146.458 35.1406 122.693 25.9062C126.401 14.3698 134.016 7.21875 147.13 6.26562Z" fill="#85C484"/>
</g>
</g>
<defs>
<clipPath id="clip0_11_54">
<rect width="266" height="77" fill="white"/>
</clipPath>
</defs>
</svg>
